<?xml version="1.0" encoding="UTF-8"?>
<svg width="741px" height="153px" viewBox="0 0 741 153" version="1.1" xmlns="http://www.w3.org/2000/svg" xmlns:xlink="http://www.w3.org/1999/xlink">
    <!-- Generator: Sketch 43.2 (39069) - http://www.bohemiancoding.com/sketch -->
    <title>Group 4</title>
    <desc>Created with Sketch.</desc>
    <defs></defs>
    <g id="Page-1" stroke="none" stroke-width="1" fill="none" fill-rule="evenodd">
        <g id="Group-4" transform="translate(-4.000000, -20.000000)">
            <text id="onmuze" font-family="Raleway-SemiBold, Raleway" font-size="144" font-weight="500" letter-spacing="-1.27999961" fill="#363B39">
                <tspan x="0.319997683" y="135">onmuze</tspan>
            </text>
            <g id="Group-3" transform="translate(592.000000, 20.000000)">
                <circle id="Oval" fill="#0A1814" cx="76.5" cy="76.5" r="76.5"></circle>
                <g id="Group" transform="translate(72.586751, 80.735954) rotate(-25.000000) translate(-72.586751, -80.735954) translate(33.586751, 30.735954)">
                    <path d="M68.3629143,0 C63.5576313,0 59.6621797,3.89804692 59.6621797,8.69377813 L59.6621797,90.7431881 C59.6621797,95.5446292 63.567409,99.4369662 68.3629143,99.4369662 L68.3629143,99.4369662 C73.1681973,99.4369662 77.0636488,95.5389193 77.0636488,90.7431881 L77.0636488,8.69377813 C77.0636488,3.89233705 73.1584195,0 68.3629143,0 L68.3629143,0 Z" id="Path-5" fill="#FFFFFF"></path>
                    <path d="M38.5318244,13.6725829 C33.7265414,13.6725829 29.8310899,17.5778122 29.8310899,22.3733174 L29.8310899,22.3733174 C29.8310899,27.1786004 33.7363192,31.0740519 38.5318244,31.0740519 L38.5318244,31.0740519 C43.3371074,31.0740519 47.2325589,27.1688226 47.2325589,22.3733174 L47.2325589,22.3733174 C47.2325589,17.5680344 43.3273296,13.6725829 38.5318244,13.6725829 L38.5318244,13.6725829 Z" id="Path-5" fill="#FF5156"></path>
                    <path d="M38.506334,41.0434017 C33.715129,40.6525253 29.8310899,44.2285236 29.8310899,49.041021 L29.8310899,77.0590198 C29.8310899,81.8668593 33.7363192,85.7643834 38.5318244,85.7643834 L38.5318244,85.7643834 C43.3371074,85.7643834 47.2325589,81.8781767 47.2325589,77.0696057 L47.2325589,50.4500828 C47.2325589,45.6480897 43.3489886,41.4384754 38.5573148,41.0475608 L38.506334,41.0434017 Z" id="Path-5" fill="#00F6D2"></path>
                    <path d="M8.70073454,27.3451657 C3.89545154,27.3451657 -8.16021719e-14,31.2378588 -8.16151638e-14,36.0523939 L-8.16889185e-14,63.3845723 C-8.17018951e-14,68.1934417 3.90522933,72.0918005 8.70073454,72.0918005 L8.70073454,72.0918005 C13.5060175,72.0918005 17.4014691,68.1991074 17.4014691,63.3845723 L17.4014691,36.0523939 C17.4014691,31.2435245 13.4962398,27.3451657 8.70073454,27.3451657 L8.70073454,27.3451657 Z" id="Path-5" fill="#FFFFFF"></path>
                </g>
            </g>
        </g>
    </g>
</svg>